<svg width="113" height="107" viewBox="0 0 113 107" fill="none" xmlns="http://www.w3.org/2000/svg">
<path d="M55.82 49.1625C59.7428 43.667 61.4913 36.9133 60.7279 30.2046C59.9646 23.4959 56.7436 17.3077 51.6864 12.834C46.6292 8.36023 40.0943 5.91809 33.3426 5.97877C26.5909 6.03944 20.1009 8.59865 15.125 13.1625C11.795 7.04254 10.9099 7.43258 10.1899 7.76258C7.42339 8.91246 5.01985 10.79 3.23452 13.196C1.4492 15.6019 0.348731 18.4465 0.0499516 21.4276C0.0499516 21.8476 -0.325056 25.5676 0.979944 26.4976C1.86494 27.1276 4.44496 27.2775 6.61996 27.2775H6.96495C5.5879 33.4239 6.37743 39.8574 9.19982 45.4885C12.0222 51.1196 16.704 55.6022 22.4524 58.1773C28.2008 60.7523 34.6626 61.2616 40.7434 59.6188C46.8242 57.976 52.1504 54.282 55.82 49.1625ZM2.29995 24.8326C1.88807 22.7588 2.04882 20.6119 2.76495 18.6226C3.39295 16.706 4.41175 14.9406 5.75691 13.4379C7.10208 11.9353 8.74437 10.7281 10.58 9.89255C11.7123 11.4218 12.7158 13.0423 13.58 14.7375C12.7981 15.5784 12.0668 16.465 11.3899 17.3926C9.68404 19.7559 8.37207 22.3798 7.50495 25.1625C5.76012 25.23 4.01336 25.094 2.29995 24.7575V24.8326ZM18.9349 53.6625C14.8785 50.7611 11.7736 46.7219 10.0129 42.0558C8.25225 37.3896 7.91485 32.3061 9.04338 27.4482C10.1719 22.5902 12.7157 18.1761 16.353 14.764C19.9904 11.3518 24.5579 9.09501 29.478 8.27884C34.398 7.46268 39.4496 8.12381 43.9938 10.1787C48.5381 12.2337 52.3709 15.5901 55.0075 19.8235C57.6441 24.0568 58.9662 28.9769 58.8064 33.9616C58.6467 38.9463 57.0123 43.7717 54.11 47.8275C50.2113 53.2553 44.3205 56.917 37.7277 58.0107C31.1349 59.1043 24.3774 57.5408 18.9349 53.6625Z" fill="#22223A"/>
<path d="M92.1647 52.5526C99.6647 45.5476 99.6647 44.7526 99.7547 44.3326C99.8447 43.9126 99.8447 43.3126 96.5297 39.1726C93.2147 35.0326 92.7197 35.0025 92.3297 34.9725C91.9397 34.9425 90.0047 34.4775 88.5047 34.1625C86.0297 33.6225 85.2797 33.4576 85.0247 33.4276H84.9047C84.7694 33.4268 84.6359 33.4577 84.5147 33.5176C81.1841 34.7759 77.9922 36.3743 74.9897 38.2875C74.8139 38.4117 74.6648 38.57 74.5515 38.753C74.4381 38.936 74.3626 39.1399 74.3297 39.3526C74.3297 39.6226 74.3297 40.4025 77.6747 49.0575C70.304 49.2298 63.2787 52.2165 58.0404 57.4046C52.802 62.5927 49.7479 69.5889 49.5047 76.9576C49.2618 84.6165 52.0654 92.0593 57.3008 97.6546C62.5363 103.25 69.7765 106.541 77.4347 106.808H78.4097C84.8353 106.81 91.0782 104.67 96.1502 100.725C101.222 96.7795 104.833 91.2554 106.412 85.0268C107.991 78.7981 107.447 72.2208 104.866 66.3361C102.286 60.4515 97.8159 55.5957 92.1647 52.5375V52.5526ZM90.1697 51.5476C89.5676 51.2668 88.9519 51.0165 88.3247 50.7976L91.6247 44.6776L96.6947 45.1275C95.2997 46.6425 92.6897 49.1626 90.1697 51.5476ZM79.9247 49.0726C78.7397 46.0726 77.5397 42.9075 76.9247 41.0625L81.9797 42.7425L82.0997 49.2676C81.3647 49.1626 80.6447 49.1626 79.9247 49.0726ZM82.2497 40.6426L77.5697 39.1426C79.0697 38.2426 81.6797 37.0126 83.3897 36.2476L82.2497 40.6426ZM84.1697 49.6426L84.0647 43.3425C85.5647 43.7025 87.7847 44.1376 89.3897 44.4076L86.2847 50.1675C85.5947 49.9425 84.8897 49.7775 84.1697 49.6275V49.6426ZM96.8147 43.0425L92.3147 42.6376L93.0197 38.1376C94.1297 39.5026 95.8097 41.6625 96.8147 43.0275V43.0425ZM91.0397 36.8775L90.1547 42.4125C88.5347 42.1575 85.8197 41.6025 84.2597 41.2425L85.7597 35.7076L88.1147 36.2175L91.0397 36.8775ZM77.5397 104.723C70.5144 104.487 63.8625 101.502 59.017 96.41C54.1716 91.3177 51.5203 84.5258 51.6344 77.4975C51.7485 70.4692 54.6188 63.7669 59.627 58.8345C64.6352 53.9022 71.3804 51.1344 78.4097 51.1275H79.3247C82.9358 51.1051 86.5143 51.8125 89.8452 53.2073C93.1762 54.6022 96.1909 56.6558 98.7085 59.2447C101.226 61.8336 103.195 64.9046 104.496 68.2733C105.797 71.6419 106.404 75.2387 106.281 78.8478C106.158 82.4569 105.306 86.0038 103.778 89.2757C102.25 92.5476 100.076 95.477 97.3875 97.888C94.699 100.299 91.5511 102.142 88.1327 103.306C84.7142 104.47 81.0958 104.932 77.4947 104.663L77.5397 104.723Z" fill="#22223A"/>
<path d="M44.7346 17.6625C41.1341 15.0921 36.7538 13.8494 32.3399 14.1461C27.926 14.4428 23.7515 16.2606 20.5273 19.2897C17.3032 22.3188 15.2289 26.3719 14.6577 30.7587C14.0865 35.1456 15.0538 39.5948 17.3947 43.3485C19.7357 47.1022 23.3056 49.9283 27.4964 51.3454C31.6871 52.7625 36.2396 52.6828 40.3782 51.1202C44.5169 49.5575 47.9859 46.6085 50.1942 42.7752C52.4026 38.942 53.2138 34.4617 52.4896 30.0975C51.6551 25.0884 48.8657 20.6157 44.7346 17.6625ZM47.4646 43.1625C45.5008 45.8978 42.7706 47.9899 39.6187 49.1748C36.4668 50.3596 33.0344 50.584 29.7551 49.8198C26.4757 49.0555 23.4963 47.3367 21.1929 44.8805C18.8896 42.4242 17.3657 39.3407 16.8134 36.019C16.2612 32.6973 16.7055 29.2865 18.0902 26.2172C19.4749 23.1478 21.738 20.5575 24.5937 18.7733C27.4494 16.9891 30.7697 16.0909 34.1354 16.1922C37.5011 16.2936 40.7614 17.3897 43.5046 19.3425C45.3324 20.6436 46.8852 22.2927 48.074 24.1954C49.2628 26.0981 50.0641 28.2168 50.432 30.43C50.8 32.6431 50.7272 34.9072 50.218 37.0922C49.7088 39.2772 48.7731 41.34 47.4646 43.1625Z" fill="#22223A"/>
<path d="M79.0698 57.6226C76.3734 57.4808 73.6758 57.878 71.1348 58.7911C68.5937 59.7043 66.2603 61.1149 64.2709 62.9406C62.2815 64.7662 60.6761 66.9703 59.5487 69.4237C58.4212 71.8772 57.7942 74.5308 57.7045 77.2294C57.6147 79.928 58.064 82.6175 59.0259 85.1404C59.9879 87.6633 61.4433 89.9691 63.307 91.9229C65.1706 93.8767 67.4052 95.4393 69.8799 96.5192C72.3547 97.5992 75.0199 98.1749 77.7197 98.2126H78.4098C83.7923 98.3001 88.9892 96.2458 92.8571 92.5016C96.7251 88.7574 98.9472 83.6301 99.0348 78.2476C99.1223 72.865 97.068 67.6681 93.3238 63.8002C89.5797 59.9322 84.4523 57.7101 79.0698 57.6226ZM77.7798 96.1125C73.0281 95.9225 68.5392 93.8811 65.2729 90.4249C62.0065 86.9687 60.2217 82.3719 60.3001 77.6171C60.3784 72.8622 62.3137 68.3266 65.6922 64.9799C69.0707 61.6332 73.6244 59.741 78.3797 59.7076H78.9948C81.4214 59.7325 83.8186 60.2421 86.0455 61.2067C88.2723 62.1712 90.2839 63.5711 91.9621 65.3242C93.6402 67.0772 94.951 69.148 95.8175 71.4148C96.684 73.6816 97.0886 76.0988 97.0076 78.5242C96.9266 80.9497 96.3617 83.3345 95.3459 85.5385C94.3302 87.7424 92.8842 89.7212 91.0928 91.3584C89.3015 92.9956 87.201 94.2582 84.9148 95.072C82.6285 95.8859 80.2027 96.2345 77.7798 96.0975V96.1125Z" fill="#22223A"/>
<path d="M17.6297 6.02256C20.9628 4.53222 24.4414 3.39111 28.0097 2.61753C29.1497 2.36253 28.6697 0.637574 27.5447 0.877574C23.8262 1.69839 20.2021 2.89974 16.7297 4.4626C16.5257 4.5846 16.3772 4.78115 16.3156 5.01072C16.254 5.24029 16.2841 5.48488 16.3997 5.69261C16.5217 5.8966 16.7182 6.04511 16.9478 6.1067C17.1774 6.16829 17.4219 6.13809 17.6297 6.02256Z" fill="#22223A"/>
<path d="M31.9547 1.98748C33.5701 1.83764 35.1926 1.77755 36.8147 1.80748C37.0534 1.80748 37.2823 1.71269 37.4511 1.5439C37.6199 1.37512 37.7147 1.14621 37.7147 0.90752C37.7147 0.668825 37.6199 0.43992 37.4511 0.271137C37.2823 0.102354 37.0534 0.00746525 36.8147 0.00746525C35.1926 -0.0224654 33.5701 0.0376197 31.9547 0.187458C31.7184 0.194966 31.4938 0.292278 31.3266 0.459461C31.1594 0.626644 31.0622 0.8512 31.0547 1.08751C31.0585 1.325 31.1546 1.55164 31.3226 1.71959C31.4905 1.88755 31.7172 1.98361 31.9547 1.98748Z" fill="#22223A"/>
<path d="M109.37 61.9276C107.933 58.863 105.857 56.1419 103.28 53.9475C103.111 53.7785 102.881 53.6835 102.642 53.6835C102.403 53.6835 102.174 53.7785 102.005 53.9475C101.836 54.1166 101.741 54.3459 101.741 54.585C101.741 54.8241 101.836 55.0534 102.005 55.2225C104.467 57.3081 106.447 59.9027 107.81 62.8275C107.85 62.9576 107.92 63.0767 108.013 63.176C108.107 63.2752 108.221 63.352 108.349 63.4005C108.476 63.4489 108.613 63.4679 108.748 63.4559C108.884 63.4439 109.015 63.4012 109.132 63.3311C109.249 63.2611 109.348 63.1654 109.423 63.0513C109.497 62.9372 109.545 62.8077 109.562 62.6725C109.579 62.5374 109.565 62.4001 109.521 62.2711C109.478 62.142 109.405 62.0246 109.31 61.9276H109.37Z" fill="#22223A"/>
<path d="M112.055 70.6576L111.2 67.0126C111.168 66.8982 111.115 66.791 111.042 66.6974C110.969 66.6037 110.879 66.5253 110.776 66.4668C110.672 66.4082 110.559 66.3706 110.441 66.3562C110.323 66.3417 110.204 66.3507 110.09 66.3825C109.863 66.4523 109.671 66.6061 109.554 66.8125C109.437 67.0188 109.403 67.262 109.46 67.4925L110.33 71.1376C110.359 71.2514 110.411 71.3583 110.482 71.4518C110.554 71.5453 110.643 71.6237 110.745 71.6823C110.847 71.741 110.96 71.7788 111.076 71.7934C111.193 71.808 111.311 71.7992 111.425 71.7676C111.654 71.7011 111.847 71.5479 111.965 71.3406C112.083 71.1333 112.115 70.8882 112.055 70.6576Z" fill="#22223A"/>
</svg>
