<svg width="99" height="106" viewBox="0 0 99 106" fill="none" xmlns="http://www.w3.org/2000/svg">
<path d="M91.3094 66.1602C88.8701 59.9595 85.2823 54.275 80.7345 49.4051C76.2457 44.7484 70.9631 40.9288 65.1344 38.1252C64.3286 37.7568 63.5558 37.3202 62.8244 36.8202C61.2044 35.2002 51.7094 13.9902 46.0994 1.00016C46.0411 0.852047 45.948 0.720179 45.8279 0.615731C45.7077 0.511283 45.5642 0.437297 45.4094 0.400124C43.6372 -0.192989 41.7102 -0.124822 39.9842 0.592019C38.2583 1.30886 36.85 2.62592 36.0194 4.30009C35.9598 4.43208 35.929 4.57529 35.929 4.72013C35.929 4.86497 35.9598 5.0081 36.0194 5.14008C41.5094 18.1001 49.5195 38.5902 49.2794 41.9652C49.2794 42.4602 49.0994 43.3001 48.9194 44.4401C47.8394 51.1601 45.1394 67.7951 49.9094 83.2451C51.725 89.4119 54.9034 95.0919 59.2094 99.8651C59.3052 99.9736 59.4229 100.06 59.5548 100.12C59.6867 100.179 59.8297 100.21 59.9744 100.21H60.2294C66.4985 98.9377 72.6062 96.9706 78.4395 94.3451C84.3786 91.5334 90.0732 88.232 95.4644 84.4751C95.616 84.3622 95.7348 84.211 95.8086 84.037C95.8824 83.8631 95.9085 83.6726 95.8844 83.4851C95.0969 77.5579 93.5856 71.7495 91.3844 66.1901L91.3094 66.1602ZM49.3094 64.0751C53.2694 63.6851 68.2394 61.5401 79.9094 51.5651C83.7795 55.9047 86.8929 60.8638 89.1194 66.2351C78.7652 75.5242 65.5535 81.0056 51.6644 81.7751C50.0628 76.0118 49.2553 70.0569 49.2644 64.0751H49.3094ZM38.1794 4.7801C38.8025 3.73817 39.7509 2.93005 40.8784 2.48011C42.006 2.03017 43.2502 1.96341 44.4194 2.29014C46.6544 7.48014 59.0294 35.9501 61.3694 38.2901C62.2441 38.9732 63.2017 39.5428 64.2194 39.9851C69.4906 42.526 74.3015 45.9276 78.4544 50.0501C67.5794 59.2751 53.3444 61.4951 49.3244 61.9601C49.4647 56.1912 50.0312 50.4405 51.0194 44.7551C51.2144 43.5551 51.3644 42.6701 51.4094 42.1301C51.7994 37.3301 40.2344 9.7751 38.1344 4.7801H38.1794ZM77.5244 92.4551C72.028 94.9198 66.286 96.7952 60.3944 98.0501C56.7987 93.9261 54.0696 89.1207 52.3694 83.9201C66.2609 83.0422 79.4603 77.546 89.8694 68.3052C91.6513 73.1054 92.9086 78.0844 93.6194 83.1551C88.4984 86.6842 83.1008 89.7943 77.4794 92.4551H77.5244Z" fill="#22223A"/>
<path d="M43.0698 3.35504C42.9548 3.32176 42.8341 3.31264 42.7154 3.32813C42.5966 3.34361 42.4824 3.38345 42.3798 3.44513C42.0008 3.67962 41.6047 3.88517 41.1948 4.06009C40.9748 4.15346 40.7493 4.23356 40.5198 4.30005C40.2962 4.37259 40.1051 4.52125 39.9798 4.72009C39.9181 4.82272 39.8783 4.937 39.8628 5.05573C39.8473 5.17445 39.8565 5.29511 39.8898 5.41013C39.9532 5.63839 40.1042 5.8324 40.3098 5.9501C40.4121 6.01264 40.5264 6.05298 40.6452 6.06848C40.7641 6.08399 40.8849 6.07431 40.9998 6.0401C41.804 5.79544 42.5711 5.44216 43.2798 4.99008C43.4854 4.87238 43.6363 4.67837 43.6998 4.4501C43.7602 4.21712 43.728 3.96976 43.6098 3.76007C43.5513 3.65999 43.4734 3.57263 43.3806 3.50308C43.2879 3.43353 43.1822 3.38317 43.0698 3.35504Z" fill="#22223A"/>
<path d="M94.7295 66.7751C94.8108 66.9824 94.9662 67.1522 95.1655 67.2516C95.3648 67.351 95.5939 67.373 95.8085 67.3133C96.0231 67.2536 96.2079 67.1165 96.3272 66.9284C96.4466 66.7403 96.4919 66.5146 96.4545 66.2951C94.7573 60.248 92.0765 54.5215 88.5194 49.3451C87.8744 48.4001 86.3144 49.3451 87.0194 50.2601C90.476 55.306 93.0807 60.8852 94.7295 66.7751Z" fill="#22223A"/>
<path d="M97.9245 70.5401C97.858 70.3112 97.7048 70.1172 97.4975 69.9996C97.2902 69.8819 97.0452 69.8498 96.8145 69.9101C96.5877 69.9799 96.3961 70.1336 96.279 70.34C96.1619 70.5463 96.1281 70.7896 96.1845 71.0201C96.1845 71.4101 96.3345 71.785 96.3945 72.175C96.4545 72.565 96.3945 72.5351 96.4695 72.7151V72.8801C96.4695 72.9701 96.4695 73.0601 96.4695 73.1501C96.5595 73.9151 96.6345 74.65 96.6795 75.46C96.6833 75.6975 96.7794 75.9243 96.9474 76.0922C97.1153 76.2602 97.342 76.3562 97.5795 76.3601C97.6977 76.3601 97.8147 76.3368 97.9239 76.2915C98.0331 76.2463 98.1323 76.1801 98.2159 76.0965C98.2994 76.0129 98.3657 75.9137 98.411 75.8045C98.4562 75.6953 98.4795 75.5782 98.4795 75.46C98.4072 73.8093 98.2217 72.1655 97.9245 70.5401Z" fill="#22223A"/>
<path d="M44.2544 33.1001C44.2229 32.9858 44.1692 32.8789 44.0964 32.7854C44.0235 32.6919 43.933 32.6137 43.8299 32.5552C43.7268 32.4967 43.6133 32.4591 43.4957 32.4445C43.378 32.4299 43.2587 32.4386 43.1444 32.4701C43.0302 32.5016 42.9233 32.5553 42.8298 32.6281C42.7363 32.701 42.658 32.7916 42.5995 32.8946C42.541 32.9977 42.5034 33.1113 42.4888 33.2289C42.4742 33.3465 42.4829 33.4658 42.5144 33.5801L44.5844 39.2201C44.6056 39.3443 44.6526 39.4626 44.7224 39.5675C44.7922 39.6723 44.8832 39.7614 44.9895 39.8288C45.0959 39.8963 45.2152 39.9408 45.3399 39.9592C45.4645 39.9776 45.5916 39.9697 45.7129 39.936C45.8343 39.9022 45.9472 39.8433 46.0443 39.7632C46.1415 39.683 46.2208 39.5833 46.277 39.4706C46.3332 39.3579 46.3652 39.2346 46.3708 39.1088C46.3764 38.9829 46.3555 38.8573 46.3094 38.7401C45.6344 36.8651 44.9445 34.9751 44.2544 33.1001Z" fill="#22223A"/>
<path d="M38.3146 27.025L17.1946 22.81C17.0578 22.7817 16.9167 22.7817 16.7799 22.81C16.6432 22.8384 16.5137 22.8946 16.3996 22.975C16.2857 23.0529 16.1886 23.1527 16.1139 23.2686C16.0392 23.3846 15.9884 23.5142 15.9645 23.65C15.9645 23.95 10.5796 53.1851 9.69456 58.7201C8.37456 67.0301 12.2145 72.55 16.7595 73.975L11.3596 100.255L1.26457 98.17C1.12963 98.1414 0.990382 98.1397 0.854777 98.1649C0.719171 98.1901 0.589855 98.2419 0.474238 98.3171C0.35862 98.3923 0.258965 98.4896 0.180949 98.6034C0.102932 98.7171 0.0480712 98.8451 0.0195411 98.98C-0.0337299 99.2543 0.0229156 99.5385 0.177241 99.7714C0.331566 100.004 0.571238 100.167 0.844568 100.225L24.1096 105.025H24.3196C24.586 105.034 24.8461 104.942 25.047 104.767C25.2479 104.591 25.3746 104.346 25.4013 104.081C25.428 103.816 25.3528 103.55 25.1909 103.338C25.029 103.126 24.7926 102.984 24.5296 102.94L13.4146 100.645L18.8296 74.335C19.4866 74.4158 20.1476 74.4609 20.8096 74.4701C27.1546 74.4701 31.3096 70.5101 33.3346 62.6801C35.8096 52.8251 39.1246 28.4051 39.1546 28.1801C39.1897 27.9165 39.1221 27.6495 38.9657 27.4345C38.8093 27.2194 38.5762 27.0728 38.3146 27.025ZM31.2945 62.275C28.6546 72.775 22.5345 72.9851 18.1695 72.2351C14.1645 71.5601 10.5646 66.7301 11.7796 59.1251C12.1246 56.9651 13.1445 51.16 14.2695 44.89C16.404 44.5209 18.5982 44.7227 20.6296 45.475C22.5237 46.0259 24.493 46.274 26.4645 46.21C29.4798 46.0326 32.3802 44.9912 34.8196 43.21C33.7546 50.005 32.4346 57.67 31.2945 62.275ZM35.2546 40.525C35.1631 40.5693 35.0774 40.6247 34.9995 40.69C32.3409 43.1846 28.8039 44.5272 25.1596 44.425C21.5746 44.32 18.1996 42.415 14.6596 43.015C16.0096 35.515 17.3896 27.895 17.8996 25.15L36.9946 28.96C36.6796 30.775 36.0496 35.2751 35.2546 40.4501V40.525Z" fill="#22223A"/>
<path d="M29.2397 75.355C27.141 76.9982 24.5397 77.8671 21.8747 77.8151C21.636 77.8151 21.4071 77.9099 21.2384 78.0786C21.0696 78.2474 20.9747 78.4764 20.9747 78.7151C20.9747 78.9538 21.0696 79.1827 21.2384 79.3515C21.4071 79.5203 21.636 79.6151 21.8747 79.6151C24.8605 79.6765 27.7791 78.7248 30.1548 76.9151C30.3534 76.7882 30.4963 76.5905 30.5548 76.3622C30.6133 76.1339 30.5829 75.8919 30.4698 75.6851C30.4107 75.5826 30.3321 75.4927 30.2383 75.4207C30.1445 75.3486 30.0374 75.2958 29.9231 75.2651C29.8089 75.2345 29.6898 75.2266 29.5725 75.2421C29.4552 75.2575 29.3422 75.2959 29.2397 75.355Z" fill="#22223A"/>
<path d="M34.4896 70.5401C34.3872 70.481 34.2741 70.4426 34.1569 70.4271C34.0396 70.4117 33.9204 70.4195 33.8062 70.4501C33.692 70.4808 33.5849 70.5337 33.4911 70.6058C33.3973 70.6778 33.3186 70.7676 33.2596 70.8701C32.8715 71.5372 32.4406 72.1786 31.9696 72.7901L31.6246 73.2401C31.455 73.4063 31.358 73.6327 31.3546 73.8701C31.3621 74.1064 31.4593 74.331 31.6265 74.4982C31.7937 74.6654 32.0183 74.7626 32.2546 74.7701C32.492 74.7668 32.7184 74.6697 32.8846 74.5001C33.6152 73.6574 34.2585 72.7427 34.8046 71.7701C34.9253 71.5651 34.96 71.3206 34.901 71.0901C34.842 70.8596 34.694 70.6619 34.4896 70.5401Z" fill="#22223A"/>
<path d="M9.78472 37.3751C10.0153 37.4354 10.2604 37.4033 10.4677 37.2856C10.675 37.1679 10.8282 36.974 10.8947 36.7451C11.5247 32.8051 12.1647 28.8551 12.8147 24.8951C12.8675 24.6649 12.832 24.4231 12.7154 24.2176C12.5988 24.0122 12.4095 23.8579 12.1847 23.7851C12.0705 23.7533 11.951 23.7443 11.8333 23.7588C11.7156 23.7732 11.6019 23.8107 11.4987 23.8693C11.3956 23.9278 11.305 24.0062 11.2323 24.0999C11.1595 24.1936 11.106 24.3007 11.0747 24.4151C10.4297 28.3751 9.79974 32.3201 9.15474 36.2801C9.09886 36.5086 9.1331 36.7499 9.25042 36.9538C9.36773 37.1577 9.55908 37.3086 9.78472 37.3751Z" fill="#22223A"/>
</svg>
