<svg width="58" height="96" viewBox="0 0 58 96" fill="none" xmlns="http://www.w3.org/2000/svg">
<path d="M38.46 95.265H18.825C18.5465 95.265 18.2795 95.1544 18.0825 94.9575C17.8856 94.7606 17.775 94.4935 17.775 94.215V42.735H1.05C0.912113 42.735 0.775574 42.7078 0.648182 42.6551C0.52079 42.6023 0.405039 42.525 0.307537 42.4275C0.210036 42.33 0.132693 42.2142 0.0799255 42.0868C0.0271581 41.9594 0 41.8229 0 41.685V22.185C0 21.9065 0.110624 21.6395 0.307537 21.4426C0.50445 21.2457 0.771524 21.1349 1.05 21.1349H17.775V1.05002C17.7789 0.772748 17.8907 0.507907 18.0868 0.311829C18.2829 0.11575 18.5477 0.00387847 18.825 0H38.46C38.7385 0 39.0056 0.110612 39.2025 0.307526C39.3994 0.504439 39.51 0.771541 39.51 1.05002V21.195H56.295C56.5735 21.195 56.8405 21.3056 57.0375 21.5025C57.2344 21.6994 57.345 21.9665 57.345 22.245V41.745C57.345 42.0235 57.2344 42.2905 57.0375 42.4874C56.8405 42.6843 56.5735 42.795 56.295 42.795H39.51V94.275C39.4947 94.5429 39.3773 94.7949 39.182 94.979C38.9868 95.1631 38.7284 95.2654 38.46 95.265ZM19.875 93.165H37.41V41.685C37.41 41.4065 37.5206 41.1395 37.7175 40.9426C37.9144 40.7457 38.1815 40.6349 38.46 40.6349H55.245V23.295H38.46C38.1815 23.295 37.9144 23.1843 37.7175 22.9874C37.5206 22.7905 37.41 22.5235 37.41 22.245V2.05499H19.875V22.2C19.875 22.4785 19.7644 22.7456 19.5675 22.9425C19.3706 23.1394 19.1035 23.25 18.825 23.25H2.04V40.59H18.825C19.1035 40.59 19.3706 40.7006 19.5675 40.8975C19.7644 41.0944 19.875 41.3615 19.875 41.64V93.165Z" fill="#22223A"/>
<path d="M43.83 47.955L43.515 61.665C43.515 61.9037 43.6098 62.1326 43.7786 62.3014C43.9474 62.4701 44.1763 62.565 44.415 62.565C44.6537 62.565 44.8826 62.4701 45.0514 62.3014C45.2202 62.1326 45.315 61.9037 45.315 61.665L45.63 47.955C45.63 47.7163 45.5352 47.4874 45.3664 47.3186C45.1976 47.1498 44.9687 47.055 44.73 47.055C44.4913 47.055 44.2624 47.1498 44.0936 47.3186C43.9248 47.4874 43.83 47.7163 43.83 47.955Z" fill="#22223A"/>
<path d="M43.515 65.55V70.2599C43.5189 70.4974 43.6149 70.7242 43.7829 70.8921C43.9509 71.0601 44.1775 71.1561 44.415 71.16C44.6537 71.16 44.8826 71.0652 45.0514 70.8964C45.2202 70.7276 45.315 70.4986 45.315 70.2599V65.55C45.3112 65.3125 45.2151 65.0858 45.0471 64.9178C44.8792 64.7499 44.6525 64.6538 44.415 64.65C44.1787 64.6575 43.9541 64.7547 43.7869 64.9219C43.6198 65.0891 43.5225 65.3137 43.515 65.55Z" fill="#22223A"/>
<path d="M3.29996 18.33L10.68 18.195C10.9187 18.195 11.1476 18.1002 11.3164 17.9314C11.4851 17.7626 11.58 17.5336 11.58 17.295C11.58 17.0563 11.4851 16.8274 11.3164 16.6586C11.1476 16.4898 10.9187 16.395 10.68 16.395L3.29996 16.53C3.06127 16.53 2.83235 16.6248 2.66357 16.7936C2.49478 16.9624 2.39996 17.1913 2.39996 17.43C2.39996 17.6687 2.49478 17.8976 2.66357 18.0664C2.83235 18.2352 3.06127 18.33 3.29996 18.33Z" fill="#22223A"/>
</svg>
