<svg width="90" height="104" viewBox="0 0 90 104" fill="none" xmlns="http://www.w3.org/2000/svg">
<path d="M12.045 66.8775C10.1453 66.9029 8.26683 66.4769 6.56396 65.6346C4.8611 64.7923 3.38258 63.5577 2.25 62.0324C0.889675 60.2063 0.113076 58.0116 0.0220642 55.7363C-0.0689475 53.461 0.529838 51.2113 1.73996 49.2824C2.46098 48.02 3.44024 46.924 4.61371 46.0659C5.78717 45.2077 7.1285 44.6069 8.55002 44.3025C11.4582 43.8639 14.4309 44.3244 17.07 45.6224C14.985 41.6624 10.8 34.1474 7.5 28.2374C0.255 15.2324 0 14.6174 0 14.1524C0 13.0274 1.40999 11.1524 9.92999 2.79741C11.07 1.68741 12.045 0.727412 12.285 0.457412C12.4456 0.273354 12.6535 0.136875 12.8862 0.0628196C13.119 -0.0112354 13.3676 -0.0199802 13.605 0.0374595C15.78 0.442459 20.82 7.34242 21.63 9.65242C21.7696 9.9623 21.8277 10.3027 21.7988 10.6414C21.7699 10.98 21.655 11.3056 21.465 11.5874C20.76 12.3974 18.105 13.3124 12 15.1724C11.07 15.4574 10.05 15.7574 9.34497 15.9974C10.41 17.9624 13.245 22.8674 16.005 27.6224C24.9 42.9524 28.005 48.6224 28.17 49.7924C28.3853 53.5776 27.2574 57.3173 24.9853 60.3523C22.7131 63.3873 19.4426 65.5229 15.75 66.3824C14.5426 66.712 13.2965 66.8785 12.045 66.8775ZM10.6349 46.1324C10.0661 46.1353 9.49868 46.1905 8.93994 46.2974C7.80119 46.5533 6.72913 47.0462 5.79355 47.744C4.85797 48.4418 4.07987 49.3289 3.50995 50.3474C2.51326 51.9148 2.02071 53.7499 2.09848 55.6057C2.17625 57.4615 2.82067 59.2489 3.94501 60.7274C5.22393 62.4006 6.98611 63.6404 8.99295 64.2789C10.9998 64.9175 13.1543 64.9239 15.165 64.2974C18.3823 63.5595 21.2353 61.7081 23.2198 59.0704C25.2043 56.4326 26.1925 53.1783 26.0099 49.8824C25.6949 48.5324 18.735 36.5474 14.13 28.6124C6.44997 15.3824 6.44996 15.3825 7.07996 14.6625C7.36496 14.3325 7.49998 14.2725 11.325 13.1625C14.1299 12.3757 16.8891 11.4343 19.59 10.3425C18.0565 7.28264 15.9657 4.53564 13.425 2.24242C13.02 2.66242 12.345 3.32241 11.34 4.29741C8.805 6.78741 2.99996 12.4574 2.11496 14.0324C2.78996 15.4574 6.11997 21.4275 9.34497 27.2175C20.76 47.7375 20.715 47.8125 20.295 48.5925C20.2124 48.7509 20.0904 48.8852 19.9406 48.9825C19.7907 49.0797 19.6182 49.1366 19.4399 49.1474C19.1966 49.1628 18.9548 49.0997 18.75 48.9675C16.351 47.3063 13.5465 46.3265 10.6349 46.1324Z" fill="#22223A"/>
<path d="M76.3648 101.992H75.6448C74.2256 101.966 72.8271 101.648 71.5366 101.057C70.2462 100.466 69.0915 99.615 68.1448 98.5575C67.009 97.1763 66.1589 95.5834 65.6439 93.871C65.1289 92.1586 64.9593 90.3609 65.1448 88.5824C65.7148 80.1224 75.0748 56.8725 77.1448 51.6675L55.7848 43.7175L45.3748 72.4725C46.5748 72.1734 47.8273 72.1531 49.0364 72.4131C50.2454 72.6731 51.3788 73.2066 52.3497 73.9725C53.926 75.2248 55.0823 76.9286 55.6639 78.8559C56.2456 80.7832 56.225 82.8422 55.6048 84.7575C53.3698 92.2575 46.6797 93.4575 41.6547 92.2575C35.9097 90.7575 32.7598 85.7624 33.6298 79.3724C34.7398 71.2124 49.1848 34.6424 49.7998 33.0824C49.9033 32.8311 50.1002 32.6297 50.3492 32.5206C50.5982 32.4115 50.8798 32.4032 51.1347 32.4974L88.2898 46.3874C88.5475 46.4926 88.7563 46.6906 88.8748 46.9424C88.9799 47.2022 88.9799 47.4927 88.8748 47.7525L75.7498 82.7175C77.8631 81.9545 80.1713 81.9228 82.3048 82.6275C83.5661 83.0933 84.6922 83.8646 85.5823 84.8725C86.4723 85.8803 87.0985 87.0932 87.4047 88.4025C87.9112 89.9934 88.0229 91.6837 87.7302 93.3274C87.4375 94.9712 86.7492 96.5191 85.7247 97.8374C84.5788 99.1909 83.1417 100.268 81.5208 100.987C79.8999 101.707 78.1372 102.05 76.3648 101.992ZM55.2148 41.3025C55.3338 41.2808 55.4558 41.2808 55.5748 41.3025L78.9448 50.0025C79.0778 50.0527 79.1994 50.1289 79.3024 50.2268C79.4054 50.3247 79.4878 50.4423 79.5447 50.5725C79.6001 50.7004 79.6286 50.8381 79.6286 50.9774C79.6286 51.1167 79.6001 51.2546 79.5447 51.3825C79.4397 51.6675 67.8298 79.6425 67.2148 88.6425C67.0634 90.1487 67.2106 91.6699 67.6482 93.1191C68.0858 94.5682 68.8051 95.9167 69.7648 97.0874C70.5252 97.9284 71.4499 98.6045 72.4819 99.074C73.5139 99.5436 74.6312 99.7966 75.7648 99.8174C77.3305 99.9732 78.9106 99.7507 80.3724 99.1686C81.8342 98.5865 83.1348 97.6619 84.1648 96.4725C84.9698 95.4196 85.5087 94.188 85.7359 92.8823C85.9631 91.5766 85.8718 90.2353 85.4698 88.9725C85.2461 87.9884 84.7826 87.0749 84.1205 86.3133C83.4583 85.5517 82.6182 84.9658 81.6748 84.6075C80.4769 84.2317 79.2086 84.1363 77.9679 84.3288C76.7273 84.5213 75.5475 84.9964 74.5198 85.7175C74.3385 85.8481 74.1207 85.9184 73.8972 85.9184C73.6738 85.9184 73.456 85.8481 73.2748 85.7175C73.099 85.5788 72.9722 85.3875 72.9128 85.1716C72.8535 84.9558 72.8647 84.7266 72.9448 84.5175L86.6248 48.0375L51.4348 34.8674C49.0948 40.8674 36.7498 72.5025 35.7748 79.7025C35.0548 84.9675 37.5897 89.1075 42.2247 90.2025C46.5597 91.2825 51.8397 90.2775 53.6547 84.2025C54.1474 82.6942 54.1703 81.0719 53.7203 79.5504C53.2703 78.0289 52.3686 76.6801 51.1347 75.6825C50.1675 74.8949 48.9789 74.4283 47.7342 74.3476C46.4895 74.267 45.2505 74.5763 44.1897 75.2325C44.0036 75.3268 43.7938 75.3642 43.5865 75.3403C43.3792 75.3163 43.1835 75.232 43.0237 75.0978C42.8639 74.9636 42.7471 74.7854 42.6877 74.5853C42.6284 74.3852 42.629 74.1721 42.6897 73.9725L54.2848 41.9924C54.3292 41.861 54.4 41.7399 54.4929 41.6368C54.5858 41.5336 54.6987 41.4505 54.8248 41.3925C54.9488 41.3409 55.0807 41.3105 55.2148 41.3025Z" fill="#22223A"/>
<path d="M20.5051 28.7325L26.8051 38.8424C27.4201 39.8174 28.9801 38.9175 28.3051 37.9275L22.0051 27.8324C21.3901 26.8424 19.8301 27.8325 20.5051 28.7325Z" fill="#22223A"/>
<path d="M29.25 42.3524C29.91 43.5524 30.5999 44.7375 31.3649 45.8775C31.4055 46.0075 31.4751 46.1267 31.5684 46.2259C31.6618 46.3252 31.7764 46.4019 31.9037 46.4504C32.031 46.4989 32.1677 46.5179 32.3034 46.5059C32.4391 46.4939 32.5703 46.4512 32.6871 46.3811C32.8039 46.311 32.9033 46.2153 32.9778 46.1012C33.0523 45.9871 33.0998 45.8576 33.117 45.7225C33.1341 45.5873 33.1202 45.45 33.0766 45.3209C33.0329 45.1919 32.9606 45.0744 32.8649 44.9774C32.0999 43.8224 31.365 42.6524 30.75 41.4374C30.6911 41.3347 30.6123 41.2448 30.5181 41.1731C30.4239 41.1014 30.3162 41.0493 30.2016 41.02C30.0869 40.9906 29.9674 40.9845 29.8504 41.0021C29.7333 41.0197 29.6209 41.0606 29.5199 41.1224C29.316 41.2444 29.1674 41.4411 29.1059 41.6706C29.0443 41.9002 29.0744 42.1447 29.1899 42.3524H29.25Z" fill="#22223A"/>
<path d="M60.1349 84.1425C59.3682 87.68 59.4763 91.3511 60.4499 94.8374C60.5135 95.0681 60.6663 95.2642 60.8744 95.3823C61.0826 95.5005 61.3291 95.5311 61.5599 95.4675C61.7906 95.4038 61.9866 95.2511 62.1048 95.0429C62.2229 94.8348 62.2535 94.5882 62.1898 94.3575C61.2992 91.1857 61.1911 87.8451 61.8749 84.6224C62.1149 83.4974 60.3749 83.0025 60.1349 84.1425Z" fill="#22223A"/>
<path d="M62.5049 99.6075C63.0378 101.051 64.0488 102.269 65.3699 103.057C65.4723 103.117 65.5854 103.155 65.7027 103.17C65.82 103.186 65.9391 103.178 66.0533 103.147C66.1676 103.117 66.2747 103.064 66.3685 102.992C66.4623 102.92 66.5409 102.83 66.5999 102.727C66.7154 102.52 66.7456 102.275 66.6841 102.046C66.6225 101.816 66.4739 101.619 66.27 101.497C66.0609 101.376 65.8604 101.241 65.6699 101.092L65.8499 101.227C65.4692 100.925 65.1267 100.577 64.8299 100.192L64.965 100.372C64.6707 99.9885 64.4239 99.5706 64.23 99.1275L64.3349 99.3374L64.2449 99.1275C64.1773 98.9013 64.0275 98.7086 63.8249 98.5874C63.723 98.524 63.6087 98.4832 63.4897 98.4676C63.3707 98.4521 63.2497 98.4622 63.1349 98.4974C62.906 98.5639 62.7121 98.7172 62.5945 98.9245C62.4768 99.1318 62.4447 99.3768 62.5049 99.6075Z" fill="#22223A"/>
<path d="M71.5048 35.8724C74.1348 37.0424 76.8198 38.0874 79.5598 39.0074C79.674 39.0389 79.7933 39.0477 79.911 39.0331C80.0286 39.0184 80.1421 38.9808 80.2452 38.9223C80.3483 38.8638 80.4389 38.7856 80.5117 38.6921C80.5846 38.5986 80.6382 38.4917 80.6697 38.3774C80.7013 38.2632 80.71 38.1439 80.6954 38.0262C80.6808 37.9086 80.6432 37.795 80.5847 37.6919C80.5262 37.5888 80.4479 37.4983 80.3544 37.4255C80.2609 37.3526 80.154 37.299 80.0398 37.2675C77.4507 36.3969 74.9074 35.3956 72.4197 34.2675C72.226 34.2013 72.0154 34.2032 71.8229 34.2729C71.6304 34.3425 71.4674 34.4757 71.3608 34.6505C71.2541 34.8253 71.2103 35.0312 71.2365 35.2343C71.2627 35.4373 71.3573 35.6254 71.5048 35.7675V35.8724Z" fill="#22223A"/>
<path d="M84.7499 40.9574L88.2149 42.3674C88.4479 42.4278 88.6951 42.3955 88.9048 42.2774C89.0072 42.2198 89.097 42.1423 89.1691 42.0496C89.2413 41.9569 89.2942 41.8508 89.3249 41.7374C89.3869 41.5045 89.3546 41.2566 89.2349 41.0474C89.1014 40.8561 88.9132 40.7097 88.6949 40.6274L85.2299 39.2174C84.997 39.1554 84.749 39.1877 84.5399 39.3074C84.3363 39.4275 84.1861 39.6206 84.1198 39.8474C84.0578 40.0803 84.0901 40.3283 84.2098 40.5374C84.3387 40.733 84.5286 40.8806 84.7499 40.9574Z" fill="#22223A"/>
</svg>
